<?xml version="1.0" encoding="utf-8"?>
<!-- Generator: Adobe Illustrator 20.0.0, SVG Export Plug-In . SVG Version: 6.00 Build 0)  -->
<svg version="1.1" id="Layer_1" xmlns="http://www.w3.org/2000/svg" xmlns:xlink="http://www.w3.org/1999/xlink" x="0px" y="0px"
	 viewBox="0 0 100 100" enable-background="new 0 0 100 100" xml:space="preserve">
<g>
	<path d="M46,93.2c-0.8,0-1.7-0.2-2.6-0.6c-0.9-0.4-1.7-0.9-2.2-1.6L7.3,52c-0.4-0.5-0.8-1.2-1.1-2c-0.3-0.8-0.5-1.5-0.5-2.2V35
		c0-1.6,0.4-2.9,1.2-4c0.8-1.1,1.8-1.8,2.9-2.3s2.3-0.5,3.6-0.2s2.4,1.1,3.5,2.3l33.1,38l33.1-38.1c1.1-1.2,2.2-2,3.5-2.3
		s2.4-0.3,3.6,0.2c1.1,0.5,2.1,1.2,2.9,2.3s1.2,2.4,1.2,4v12.9c0,0.7-0.2,1.4-0.5,2.2s-0.7,1.5-1.1,2L58.9,91
		c-0.5,0.7-1.3,1.2-2.3,1.6s-1.9,0.6-2.7,0.6H46z"/>
</g>
</svg>
