<?xml version="1.0" encoding="utf-8"?>
<!-- Generator: Adobe Illustrator 20.0.0, SVG Export Plug-In . SVG Version: 6.00 Build 0)  -->
<svg version="1.1" id="Livello_1" xmlns="http://www.w3.org/2000/svg" xmlns:xlink="http://www.w3.org/1999/xlink" x="0px" y="0px"
	 viewBox="0 0 595.3 190.9" enable-background="new 0 0 595.3 190.9" xml:space="preserve">
<path d="M281.6,43.7l0.5-1.5h4L297.2,3h-5.4l0.5-1.5h32.9l-2.8,11h-1.8c0.2-1.1,0.3-2,0.3-2.9c0-4.7-2-6.6-10.5-6.6h-6.3L299,21
	c7.7-0.1,9.2-0.8,11.9-6.6h1.8L308,30.8h-1.8c0.1-1.1,0.2-2.2,0.2-3c0-4.1-1.1-4.6-8-5l-5.6,19.5h5.6l-0.5,1.5H281.6z"/>
<path d="M327,37.9c0,2.8,2.2,5.2,5.4,5.2c4.7,0,6.8-3.4,8.2-6.9c1.5-3.7,2.7-7.7,2.7-11.6c0-3.2-1.4-5.2-5-5.2c-4.5,0-7,3.4-8.4,6.9
	C329,28.4,327,35.6,327,37.9 M332.7,44.4c-7.3,0-11.1-5-11.1-9.2c0-8.5,8.2-17.1,17.2-17.1c6,0,10.4,4.7,10.4,10.1
	C349.1,35.4,341.3,44.4,332.7,44.4"/>
<path d="M354.8,20.1l0.5-1.4h1.4c2,0,6.8-0.4,9.5-0.6l-1.7,5.8l0.2,0.1c2.4-3.4,7.2-5.8,10.5-5.8c3.5,0,6.2,1.2,6.2,5.3
	c0,1.9-5,17.3-5,17.8c0,1,1.1,1.3,2,1.3c3.3,0,5.6-5.3,6.6-7.6l1.3,0.5c-1.9,4.2-4.5,9.2-10.2,9.2c-2.4,0-4.5-1.1-4.5-3.4
	c0-3.8,5-16.5,5-18.6c0-2-1.7-2.4-3.2-2.4c-5.4,0-9.8,6.2-11.7,13.3l-2.9,10.4h-5.1l6.8-23.6H354.8z"/>
<path d="M395.7,38.4c0,2.7,2,4.7,4.9,4.7c3.3,0,6.1-2.3,8.8-9.7c0.9-2.3,2.6-7.2,2.6-9.7c0-2.5-1.5-4.3-4.5-4.3
	c-5.5,0-8.2,6.4-9.7,10.4C396.8,32.3,395.7,35.7,395.7,38.4 M422.6,34.5c-1.8,4.4-4.8,9.9-10.6,9.9c-2.4,0-4.1-1.8-4.2-3.9h-0.1
	c-1.8,2.3-5,3.9-8.2,3.9c-6,0-9.3-4.8-9.3-8.8c0-7.6,7.9-17.6,16.7-17.6c2.6,0,4.7,1,6.2,2.8l5.7-19.1H413l0.5-1.4h2.7
	c5,0,6.7-0.2,8.4-0.3l-11.9,39.7c-0.1,0.6-0.2,0.9-0.2,1c0,0.8,1.1,1.5,1.8,1.5c3,0,5.9-6,6.9-8.1L422.6,34.5z"/>
<path d="M431.3,38.3c0,2.7,1.6,4.9,4.7,4.9c1.8,0,5.6-1.3,8.2-7.7c1.3-3.2,3.1-8.3,3.1-11.7c0-2.6-1.6-4.4-4.5-4.4
	c-3.8,0-5.9,3.1-7.5,5.9C433.5,28.5,431.3,34.6,431.3,38.3 M455.1,18.7l-6.7,21.6c-0.6,1.6,0.6,2.1,1.4,2.1c2.4,0,6.2-5.4,7-7.9
	l1.3,0.4c-2.7,6.9-6.5,9.5-9.7,9.5c-2.7,0-4.9-1.6-5-4.1h-0.1c-1.8,2.5-5.1,4.1-8.2,4.1c-5.6,0-9.1-4-9.1-9.7
	c0-7.3,8.9-16.7,17-16.7c2.8,0,4.7,1.6,5.7,3.9h0.1l1.2-3.2H455.1z"/>
<path d="M463.5,26l-1.4-0.6l4.7-7.3c3.4,1.1,10.8,2.6,13.8,2c-0.1-1,0.5-2,1.6-2c0.7,0,1.2,0.6,1.2,1.2c0,0.7-2.1,3.2-2.9,3.8
	l-16.8,15.1c3.7,0.1,10.7,3.1,12.7,3.1c1.1,0,1.8-0.6,1.8-1.3c0-1.3-3.4-0.3-3.4-2.7c0-1.2,1.2-1.8,2.4-1.8c1.9,0,2.7,1.8,2.7,3.3
	c0,4-3.8,5.6-7.6,5.6c-3.5,0-8.8-2.2-12.2-3c-0.1,0.9-0.1,2.8-1.6,2.8c-0.9,0-1.2-0.5-1.2-1.2c0-1.1,0.8-1.9,2.3-3.2l17.8-16.4
	l-0.1-0.1c-1,0.1-2.3,0.2-3.5,0.2c-2.8,0-5.7-0.3-8.2-1.1L463.5,26z"/>
<path d="M496.1,5.3c0-1.7,1.4-3.1,3.3-3.1c1.9,0,3.3,1.4,3.3,3.1c0,1.8-1.4,3-3.3,3C497.5,8.3,496.1,7.1,496.1,5.3 M502.8,35.1
	c-2,5.5-5.3,9.4-10.6,9.4c-2.2,0-4.5-1-4.5-3.3c0-0.8,0.4-2.5,0.7-3.5l5.1-17.4h-5.6l0.5-1.4h1.4c2,0,6.8-0.4,9.5-0.6L493,38.7
	c-0.2,0.8-0.6,1.6-0.6,2.3c0,0.8,1.1,1.2,2,1.2c2.9,0,5.5-4.2,7-7.6L502.8,35.1z"/>
<path d="M509.8,37.9c0,2.8,2.2,5.2,5.4,5.2c4.7,0,6.8-3.4,8.2-6.9c1.5-3.7,2.7-7.7,2.7-11.6c0-3.2-1.4-5.2-5-5.2
	c-4.5,0-7,3.4-8.4,6.9C511.8,28.4,509.8,35.6,509.8,37.9 M515.4,44.4c-7.3,0-11.1-5-11.1-9.2c0-8.5,8.2-17.1,17.2-17.1
	c6,0,10.4,4.7,10.4,10.1C531.9,35.4,524.1,44.4,515.4,44.4"/>
<path d="M537.6,20.1l0.5-1.4h1.3c2,0,6.8-0.4,9.5-0.6l-1.7,5.8l0.1,0.1c2.4-3.4,7.2-5.8,10.5-5.8c3.6,0,6.2,1.2,6.2,5.3
	c0,1.9-5,17.3-5,17.8c0,1,1.1,1.3,2,1.3c3.3,0,5.6-5.3,6.6-7.6l1.4,0.5c-1.9,4.2-4.5,9.2-10.2,9.2c-2.4,0-4.5-1.1-4.5-3.4
	c0-3.8,5-16.5,5-18.6c0-2-1.7-2.4-3.2-2.4c-5.4,0-9.8,6.2-11.7,13.3l-2.9,10.4h-5.1l6.8-23.6H537.6z"/>
<path d="M590.2,22.4c0-1.5-1.3-2.9-3-2.9c-5,0-7.9,7-9.1,10.6C586.5,30.1,590.2,26.6,590.2,22.4 M593.1,37.3
	c-2.6,4.3-5.6,7.2-11.3,7.2c-6.2,0-10.6-4.9-10.6-10.1c0-7.9,8.8-16.3,17.3-16.3c3.8,0,6.8,2.1,6.8,5.2c0,4-4.4,8.1-17.5,8.2
	c-0.5,1.8-1.1,3.6-1.1,5.5c0,3.1,1.6,5.9,5.4,5.9c5.1,0,7.3-2.5,9.8-6.3L593.1,37.3z"/>
<path d="M322.7,93.5l-0.5,1.6h-4.2c-2.8,8.4-6.7,14.3-18.8,14.3c-9.2,0-16.3-7-16.3-15.2c0-15.3,13.6-28.9,26.1-28.9
	c3,0,6.7,1.3,9,3.2l2.8-1.8h1.3L319.4,78l-2-0.2c0-8.5-4.1-11-9.1-11c-11.9,0-18.2,22.2-18.2,31.8c0,2.5,1.3,9.4,9.4,9.4
	c5.8,0,8.5-3.7,10-12.8h-5.9l0.5-1.6H322.7z"/>
<path d="M335.9,70.1c0-1.7,1.4-3.1,3.3-3.1c1.9,0,3.3,1.4,3.3,3.1c0,1.8-1.4,3-3.3,3C337.3,73.1,335.9,71.8,335.9,70.1 M342.6,99.8
	c-2,5.5-5.3,9.4-10.6,9.4c-2.2,0-4.5-1-4.5-3.3c0-0.8,0.4-2.5,0.7-3.6l5.1-17.4h-5.6l0.5-1.4h1.3c2,0,6.8-0.4,9.5-0.6l-6.2,20.7
	c-0.2,0.7-0.6,1.6-0.6,2.3c0,0.8,1.1,1.2,2,1.2c2.9,0,5.5-4.2,7-7.6L342.6,99.8z"/>
<path d="M348.1,102.7c0,2.8,2.2,5.3,5.4,5.3c4.7,0,6.8-3.4,8.2-7c1.5-3.7,2.7-7.7,2.7-11.6c0-3.1-1.4-5.2-5-5.2
	c-4.5,0-7,3.4-8.4,6.9C350.1,93.1,348.1,100.4,348.1,102.7 M353.8,109.2c-7.3,0-11.1-5-11.1-9.2c0-8.5,8.2-17.1,17.2-17.1
	c6,0,10.4,4.7,10.4,10.1C370.2,100.1,362.4,109.2,353.8,109.2"/>
<path d="M373.8,92.5c1.7-4,4.8-9.7,10.2-9.7c2.3,0,4,1.1,4,3.6c0,1.3-5.9,18.1-5.9,19.2c0,1.8,1.4,2,2.8,2
	c7.7,0,13.4-13.4,13.4-18.1c0-2.7-3.6-1.7-3.6-4.6c0-1.2,1.1-2.1,2.4-2.1c2,0,3.2,1.7,3.2,4.4c0,5.9-5,22-16.7,22
	c-2.8,0-6-1.2-6-4.2c0-1.8,5.5-18.4,5.5-18.9c0-0.6-0.5-1.2-1.3-1.2c-2.3,0-5.5,5.7-6.4,7.6H373.8z"/>
<path d="M410.5,103c0,2.7,1.6,4.9,4.7,4.9c1.8,0,5.6-1.3,8.2-7.7c1.3-3.1,3.1-8.3,3.1-11.7c0-2.6-1.6-4.4-4.5-4.4
	c-3.8,0-5.9,3.2-7.5,5.9C412.7,93.3,410.5,99.4,410.5,103 M434.3,83.5l-6.7,21.7c-0.6,1.7,0.6,2.1,1.3,2.1c2.4,0,6.3-5.4,7-7.9
	l1.3,0.4c-2.7,7-6.5,9.5-9.7,9.5c-2.7,0-4.9-1.6-5-4.1h-0.1c-1.8,2.5-5.1,4.1-8.2,4.1c-5.6,0-9.1-4-9.1-9.7c0-7.3,8.9-16.7,17-16.7
	c2.8,0,4.7,1.6,5.7,3.9h0.1l1.2-3.2H434.3z"/>
<path d="M440.5,84.9l0.5-1.4h1.3c2,0,6.8-0.4,9.5-0.6l-1.7,5.8l0.1,0.1c2.4-3.4,7.2-5.8,10.5-5.8c3.6,0,6.3,1.1,6.3,5.2
	c0,1.9-5,17.3-5,17.8c0,1,1.1,1.2,2,1.2c3.3,0,5.6-5.3,6.6-7.6l1.3,0.5c-1.9,4.2-4.5,9.2-10.2,9.2c-2.4,0-4.5-1.1-4.5-3.4
	c0-3.8,5-16.5,5-18.5c0-2-1.7-2.4-3.2-2.4c-5.4,0-9.8,6.2-11.7,13.3l-2.9,10.3h-5.1l6.8-23.6H440.5z"/>
<path d="M476,84.9l0.5-1.4h1.4c2,0,6.8-0.4,9.5-0.6l-1.7,5.8l0.1,0.1c2.4-3.4,7.2-5.8,10.5-5.8c3.5,0,6.2,1.1,6.2,5.2
	c0,1.9-5,17.3-5,17.8c0,1,1.1,1.2,2,1.2c3.3,0,5.6-5.3,6.6-7.6l1.3,0.5c-1.9,4.2-4.5,9.2-10.2,9.2c-2.4,0-4.5-1.1-4.5-3.4
	c0-3.8,5-16.5,5-18.5c0-2-1.7-2.4-3.2-2.4c-5.4,0-9.8,6.2-11.7,13.3l-2.9,10.3h-5.1l6.8-23.6H476z"/>
<path d="M518.2,70.1c0-1.7,1.4-3.1,3.3-3.1c1.8,0,3.3,1.4,3.3,3.1c0,1.8-1.4,3-3.3,3C519.6,73.1,518.2,71.8,518.2,70.1 M524.8,99.8
	c-2,5.5-5.3,9.4-10.6,9.4c-2.2,0-4.5-1-4.5-3.3c0-0.8,0.4-2.5,0.7-3.6l5.1-17.4h-5.6l0.5-1.4h1.3c2,0,6.8-0.4,9.5-0.6l-6.2,20.7
	c-0.2,0.7-0.6,1.6-0.6,2.3c0,0.8,1.1,1.2,2,1.2c2.9,0,5.5-4.2,7-7.6L524.8,99.8z"/>
<path d="M299,139.5h-0.1L288,157.4h12.2L299,139.5z M308,172.2h4.5l-0.5,1.4h-16.1l0.5-1.4h4.8l-0.9-13.2H287l-8,13.2h5.5l-0.5,1.4
	h-10.4l0.5-1.4h2.7l25.2-41.4h2.4L308,172.2z"/>
<path d="M338,153.4c0-3.9-3-3.9-4.1-4c-6.6,0.1-7.5,11.7-7.5,12.6c0,2.5,2.1,3.8,4.4,3.8C336,165.7,338,157.5,338,153.4
	 M322.3,176.2c-3,1.8-4.5,3.8-4.5,7.4c0,0.8,0.5,5.5,7.9,5.5c4.7,0,13.9-1.7,13.9-7.8c0-3.3-2.9-3.7-5.5-4
	C330.9,176.9,325.1,176.9,322.3,176.2 M350.2,150.2c0,1.2-1.1,2.3-2.3,2.3c-1.1,0-1.8-0.5-2.6-1.1c-0.7,0.2,0,1-2.9,8
	c-1.8,4.6-5.8,7.8-11.9,7.8c-1.9,0-3.8-0.5-5.4-1.6c-1.5,0.1-4,1.7-4,3.3c0,2.6,4.6,2.6,10.5,3.1c7.4,0.6,10.6,1.8,10.6,7.1
	c0,9.1-10.1,11.8-17.8,11.8c-5,0-11-1.8-11-7.7c0-4.1,3.9-6,7-7.3v-0.1c-2.3-0.5-3.5-1.6-3.5-4.2c0-2.8,2.8-5.5,6.9-7.3
	c-1.2-1.2-2.1-3.4-2.1-5.2c0-6.6,6.2-11.1,12.5-11.1c3.9,0,6.7,2.4,8.2,5.6h0.1c0.8-2.5,2-6.2,5.2-6.2
	C349.2,147.5,350.2,148.6,350.2,150.2"/>
<path d="M351.8,150.1l0.5-1.4h1.3c2,0,6.8-0.4,9.5-0.6l-1.7,5.7l0.1,0.1c2.4-3.4,7.2-5.8,10.5-5.8c3.6,0,6.3,1.1,6.3,5.2
	c0,1.9-5,17.3-5,17.8c0,1,1.1,1.3,2,1.3c3.3,0,5.6-5.3,6.6-7.6l1.4,0.5c-1.9,4.2-4.5,9.2-10.2,9.2c-2.4,0-4.5-1.1-4.5-3.4
	c0-3.8,5-16.5,5-18.6c0-2-1.7-2.4-3.2-2.4c-5.4,0-9.8,6.3-11.7,13.3l-2.9,10.4h-5.1l6.8-23.6H351.8z"/>
<path d="M404.4,152.4c0-1.5-1.3-2.9-3-2.9c-5,0-7.9,7-9.1,10.6C400.7,160,404.4,156.5,404.4,152.4 M407.3,167.2
	c-2.6,4.3-5.6,7.1-11.3,7.1c-6.3,0-10.7-4.9-10.7-10c0-7.9,8.8-16.3,17.3-16.3c3.8,0,6.8,2.2,6.8,5.2c0,4-4.4,8.1-17.5,8.2
	c-0.5,1.8-1.1,3.5-1.1,5.5c0,3.2,1.6,5.9,5.4,5.9c5.1,0,7.3-2.5,9.8-6.3L407.3,167.2z"/>
<path d="M419.1,131.7l0.5-1.4h2.7c5,0,6.7-0.2,8.4-0.3L419,168.6c-0.2,0.8-0.6,1.7-0.6,2.3c0,0.8,1.1,1.2,2,1.2
	c2.9,0,5.5-4.2,7.6-8.3l1.4,0.4c-2.6,6.1-6.2,10-11.2,10c-2.2,0-4.5-1-4.5-3.3c0-0.8,0.4-2.5,0.7-3.5l10.6-35.8H419.1z"/>
<path d="M437.3,131.7l0.5-1.4h2.7c5,0,6.7-0.2,8.4-0.3l-11.6,38.7c-0.2,0.8-0.6,1.7-0.6,2.3c0,0.8,1.1,1.2,2,1.2
	c2.9,0,5.5-4.2,7.6-8.3l1.3,0.4c-2.6,6.1-6.2,10-11.2,10c-2.2,0-4.5-1-4.5-3.3c0-0.8,0.4-2.5,0.7-3.5l10.6-35.8H437.3z"/>
<path d="M459.5,135.2c0-1.7,1.4-3.1,3.3-3.1c1.8,0,3.3,1.4,3.3,3.1c0,1.8-1.4,3-3.3,3C461,138.3,459.5,137,459.5,135.2 M466.2,165
	c-2,5.5-5.3,9.4-10.7,9.4c-2.2,0-4.5-1-4.5-3.3c0-0.8,0.4-2.5,0.7-3.5l5.1-17.4h-5.6l0.5-1.4h1.3c2,0,6.8-0.4,9.5-0.6l-6.2,20.7
	c-0.2,0.8-0.6,1.7-0.6,2.3c0,0.8,1.1,1.2,2,1.2c2.9,0,5.5-4.2,7-7.6L466.2,165z"/>
<path d="M105.2,183.4c1.9,2.3,0.6,4.6-1.9,6c-17.2-0.6-30.8-0.9-46.4-0.9c-15.6,0-28.6,0.3-42.5,0.9c-2.6-1.7-2.6-4.9,0.6-6l9.1-1.1
	c14.6-1.4,17.9-6.9,27.9-34.2L85.4,43.4c9.1-24.5,9.7-32.8-7.5-34.2l-9.7-1.1c-1.9-2.3-0.6-4.6,1.9-6c17.2,0.6,30.8,0.8,46.4,0.8
	c15.6,0,28.5-0.3,42.5-0.8c2.6,1.7,2.6,4.9-0.6,6l-9.1,1.1c-14.6,1.4-18.2,6.9-27.9,34.2L88.1,148.1c-9.1,24.5-9.7,32.8,7.5,34.2
	L105.2,183.4z"/>
<path d="M33.4,135.3c0,15.1,13.6,27.8,33.4,27.8c29,0,42.2-18.1,51-36.9c9.2-19.5,16.7-40.9,16.7-61.7c0-16.8-8.8-27.8-31.2-27.8
	c-27.7,0-43.5,18.1-51.9,36.5C46.2,84.7,33.4,123.2,33.4,135.3 M68.6,169.8C23.3,169.8,0,143.4,0,120.9C0,75.6,50.6,30,106.4,30
	c37.4,0,64.2,24.8,64.2,53.3C170.6,121.9,122.2,169.8,68.6,169.8"/>
<line fill="none" stroke="#000000" stroke-width="4.243" stroke-miterlimit="10" x1="225.6" y1="2.2" x2="225.6" y2="190.3"/>
</svg>
