<?xml version="1.0" encoding="utf-8"?>
<!-- Generator: Adobe Illustrator 20.0.0, SVG Export Plug-In . SVG Version: 6.00 Build 0)  -->
<svg version="1.1" id="Layer_1" xmlns="http://www.w3.org/2000/svg" xmlns:xlink="http://www.w3.org/1999/xlink" x="0px" y="0px"
	 viewBox="0 0 100 100" enable-background="new 0 0 100 100" xml:space="preserve">
<g>
	<path d="M54,8.2c0.8,0,1.7,0.2,2.6,0.6c0.9,0.4,1.7,0.9,2.2,1.6l33.9,39.1c0.4,0.5,0.8,1.2,1.1,2c0.3,0.8,0.5,1.5,0.5,2.2v12.9
		c0,1.6-0.4,2.9-1.2,4c-0.8,1.1-1.8,1.8-2.9,2.3s-2.3,0.5-3.6,0.2c-1.3-0.3-2.4-1.1-3.5-2.3L50,32.7L16.9,70.8
		c-1.1,1.2-2.2,2-3.5,2.3s-2.4,0.3-3.6-0.2c-1.1-0.5-2.1-1.2-2.9-2.3c-0.8-1.1-1.2-2.4-1.2-4V53.7c0-0.7,0.2-1.4,0.5-2.2
		s0.7-1.5,1.1-2L41,10.4c0.5-0.7,1.3-1.2,2.3-1.6s1.9-0.6,2.7-0.6L54,8.2L54,8.2z"/>
</g>
</svg>
