<?xml version="1.0" encoding="utf-8"?>
<!-- Generator: Adobe Illustrator 21.0.0, SVG Export Plug-In . SVG Version: 6.00 Build 0)  -->
<svg version="1.1" id="control-intro-arrow" xmlns="http://www.w3.org/2000/svg" xmlns:xlink="http://www.w3.org/1999/xlink" viewBox="0 0 108.9 108.9" xml:space="preserve">
  <g>
    <path d="M48.6,75.6c-1.4,0-2.9-0.6-3.9-1.6c-1-1-1.6-2.4-1.6-3.9c0-1.4,0.6-2.7,1.6-3.7l12-12L44.8,42.5
    	c-2.1-2.1-2.1-5.6,0-7.7c1-1,2.4-1.6,3.8-1.6s2.8,0.6,3.8,1.6l15.7,15.7c0.2,0.2,0.3,0.3,0.4,0.5c1.8,2.2,1.6,5.3-0.4,7.3L52.5,74
    	C51.2,75.3,49.6,75.6,48.6,75.6z"/>
    <circle fill="none" stroke-width="6" stroke-miterlimit="10" cx="54.5" cy="54.5" r="51.5"/>
  </g>
</svg>
