<?xml version="1.0" encoding="utf-8"?>
<!-- Generator: Adobe Illustrator 21.0.0, SVG Export Plug-In . SVG Version: 6.00 Build 0)  -->
<svg version="1.1" id="logotipo_Fondazione" xmlns="http://www.w3.org/2000/svg" xmlns:xlink="http://www.w3.org/1999/xlink" viewBox="0 0 849.7 286.8" xml:space="preserve">
<g>
	<g>
		<polygon points="140.1,43.4 143.3,43.4 190,156.6 283.5,156.6 283.5,3.3 0,3.3 0,286.8 39.6,286.8 		"/>
		<polygon points="110.7,156.6 172.7,156.6 141.7,81.6 		"/>
		<polygon points="196.6,172.6 220.1,229.5 202.8,229.5 179.3,172.6 104.1,172.6 56.9,286.8 283.5,286.8 283.5,172.6
			"/>
	</g>
	<g>
		<path d="M355.5,79.2v-2.6h9.2V6h-9.2V3.4h55.4l0.9,20.1h-2C406.2,9.8,404.3,6,390.1,6h-14.4v33
			c10.1-0.1,14.6-0.5,15.8-11.8h2.6v27.9h-2.5c-0.8-11.6-5.3-13.3-15.9-13.3v34.7h9.8v2.6H355.5z"/>
		<path d="M451.9,56.9c0,13.7-10,23.8-21.9,23.8c-11.9,0-21.9-10.1-21.9-23.8s10-23.7,21.9-23.7
			C441.9,33.1,451.9,43.1,451.9,56.9z M418.4,56.9c0,9.5,0.1,21.6,11.6,21.6c11.5,0,11.6-12,11.6-21.6c0-9.4-0.1-21.5-11.6-21.5
			C418.5,35.4,418.4,47.5,418.4,56.9z"/>
		<path d="M464.7,36.9h-6.2v-2.6h2.4c2.2,0,4.3,0,6.4-0.2c2.2-0.1,4.3-0.5,6.4-0.9v12h0.2c3.2-7.2,7.6-12,15.9-12
			c4.1,0,13.5,0.9,13.5,11.4v32.1h6.1v2.6h-20.9v-2.6h5.9V46c0-8.3-2.6-9.5-7.2-9.5c-7.7,0-13.6,10.6-13.6,19.1v21.1h6.1v2.6h-21.2
			v-2.6h6.2V36.9z"/>
		<path d="M565.7,76.6v2.6c-5,0-10,0.1-15,0.9v-7.6h-0.2c-3.2,5.4-8.4,8.2-14.9,8.2c-11.5,0-20-11-20-24
			c0-12.7,7.6-23.6,21.1-23.6c3.6,0,10.2,1.7,13.6,8.6h0.2V3.6H543V1h3.7c4.2,0,8.6-0.2,12.7-1v76.6H565.7z M536.9,35.4
			C526.4,35.4,526,47,526,55.1c0,17.5,2.2,23.3,11.5,23.3c3,0,6.4-1.8,7.8-3.1c4.3-3.9,5.8-6.1,5.8-17.9c0-2.5-0.1-7.7-0.8-10
			C549.9,45.6,547.4,35.4,536.9,35.4z"/>
		<path d="M617.6,71.4c-0.3,5.3-4.4,9.3-9.6,9.3c-4.2,0-6.6-2.7-7.4-6.9c-3.9,4.8-9.5,6.9-15.3,6.9
			c-7.2,0-13.3-2.7-13.3-11.1c0.3-10.6,11.1-16.5,28.5-16.5V42.3c0-5.3-4.2-6.9-8.2-6.9c-2.5,0-10.6,0.8-10.6,4.1
			c0,0.9,3.4,1.5,3.4,5.2c0,2.8-1.8,4.8-4.7,4.8c-3.1,0-4.8-2.3-4.8-5.4c0-4.1,4.7-10.9,18.2-10.9c15.4,0,15.4,6.6,15.4,11.1v27
			c0,3.4,0,5.2,2.4,5.2c2.3,0,3.4-3.2,4-5.1H617.6z M600.5,55.5c-7.4,0.1-20,1.4-20,11.8c0,5.6,3.5,9,8.7,9c3.6,0,6-0.9,8.7-3.3
			c0.9-0.9,2.5-2.2,2.5-6.9V55.5z"/>
		<path d="M624.8,49V34.3h34.1v2.8l-26.3,39.5h14.3c5.7,0,7.9-5.7,9.6-13.9h2.2v16.5h-36.7v-2.5l26.6-39.8h-10.1
			c-5.9,0-9.3,0.9-11,12.1H624.8z"/>
		<path d="M668,79.2v-2.6h7.6V36.9H668v-2.6h3.7c4.2,0,8.6-0.1,12.7-1.1v43.5h6.7v2.6H668z M680,4.3
			c2.7,0,5.8,2.5,5.8,5.4c0,3.5-2.5,6-5.8,6c-3.3,0-5.4-2.7-5.4-6C674.5,6.8,677.1,4.3,680,4.3z"/>
		<path d="M743.1,56.9c0,13.7-10,23.8-21.9,23.8c-11.9,0-21.9-10.1-21.9-23.8s10-23.7,21.9-23.7
			C733.1,33.1,743.1,43.1,743.1,56.9z M709.6,56.9c0,9.5,0.1,21.6,11.6,21.6c11.5,0,11.6-12,11.6-21.6c0-9.4-0.1-21.5-11.6-21.5
			C709.7,35.4,709.6,47.5,709.6,56.9z"/>
		<path d="M755.9,36.9h-6.2v-2.6h2.4c2.2,0,4.3,0,6.4-0.2c2.2-0.1,4.3-0.5,6.4-0.9v12h0.2c3.2-7.2,7.6-12,15.9-12
			c4.1,0,13.5,0.9,13.5,11.4v32.1h6.1v2.6h-20.9v-2.6h5.9V46c0-8.3-2.6-9.5-7.2-9.5c-7.7,0-13.6,10.6-13.6,19.1v21.1h6.1v2.6h-21.2
			v-2.6h6.2V36.9z"/>
		<path d="M849.6,65.2c-2.3,10.6-10,15.6-20,15.6c-11.6,0-22.7-9.3-22.7-21.9c0-13.4,8.9-25.7,22.4-25.7
			c11.6,0,20.3,7.8,20.4,20.2h-32.1V58c0,11.2,1.5,20.3,13.9,20.3c6.5,0,14.1-5.7,15.7-13.2H849.6z M839.3,50.1v-3.9
			c0-8.2-4.8-10.8-10.4-10.8c-6.8,0-9.9,6.4-10.1,7.2c-0.7,2-1,4.7-1.1,7.5H839.3z"/>
		<path d="M353.9,172.5v-2.6h9l24.6-74.2h4.4l23.4,74.2h7.9v2.6h-28.6v-2.6h9.2l-7.8-25h-21.7l-8.1,25h9.8v2.6H353.9z
			 M394.9,141.7l-9.3-30.8h-0.2l-10,30.8H394.9z"/>
		<path d="M446.7,165.3c15.6,0,18.5,0.7,22.1,4.8c2.3,2.6,3.2,5.8,3.2,9.2c0,14-12.3,19-23,19c-16.3,0-21.8-7-21.8-11.8
			c0-7.9,7.5-11,13.3-12.5v-0.3c-5.8-0.8-12.4-1.6-12.4-9.8c0-6.2,7-8.1,11.4-8.7v-0.2c-5.1-2.5-8.5-6.4-8.5-12.8
			c0-7.2,5.1-15.7,16.3-15.7c6.6,0,11.2,2.2,14.2,6.6c1.1-2.6,3.5-6.4,7.3-6.4c2,0,4.4,0.9,4.4,3.9c0,2.3-1.2,4.3-3.6,4.3
			c-1.9,0-3.1-3.4-3.9-3.4c-1.1,0-2.5,1.6-2.5,2.7c0,1.2,1.6,4.2,1.6,7.4c0,10.7-9.1,14-11.5,14.2c-11.2,1.5-21.7,1.6-21.7,7.3
			c0,1.2,1.2,2.4,3,2.4H446.7z M447.9,195.7c19.3,0,20.1-10.8,20.1-12.6c0-6.7-2-10-16.5-10c-13.4,0-17.1,9.1-17.1,12.9
			C434.4,193.3,442,195.7,447.9,195.7z M439.7,142.2c0,5.1,1,11.9,7.3,11.9c8.3,0,8.9-5.9,8.9-12.9c0-5.7-0.9-12.5-7.7-12.5
			C442.5,128.7,439.7,131.4,439.7,142.2z"/>
		<path d="M483.6,130.2h-6.2v-2.6h2.4c2.2,0,4.3,0,6.4-0.2c2.2-0.1,4.3-0.5,6.4-0.9v12h0.2c3.2-7.2,7.6-12,15.9-12
			c4.1,0,13.5,0.9,13.5,11.4v32.1h6.1v2.6h-20.9v-2.6h5.9v-30.7c0-8.3-2.6-9.5-7.2-9.5c-7.7,0-13.6,10.6-13.6,19.1v21.1h6.1v2.6
			h-21.2v-2.6h6.2V130.2z"/>
		<path d="M577.2,158.4c-2.3,10.6-10,15.6-20,15.6c-11.6,0-22.7-9.3-22.7-21.9c0-13.4,8.9-25.7,22.4-25.7
			c11.6,0,20.3,7.8,20.4,20.2h-32.1v4.7c0,11.2,1.5,20.3,13.8,20.3c6.5,0,14.1-5.7,15.7-13.2H577.2z M567,143.3v-3.9
			c0-8.2-4.8-10.8-10.4-10.8c-6.8,0-9.9,6.4-10.1,7.2c-0.7,2-1,4.7-1.1,7.5H567z"/>
		<path d="M582.3,172.5v-2.6h8.7v-73h-8.7v-2.6h4.9c4.2,0,8.6-0.2,12.7-1v76.6h8.7v2.6H582.3z"/>
		<path d="M613.9,172.5v-2.6h8.7v-73h-8.7v-2.6h4.9c4.2,0,8.6-0.2,12.7-1v76.6h8.7v2.6H613.9z"/>
		<path d="M646.2,172.5v-2.6h7.6v-39.7h-7.6v-2.6h3.7c4.2,0,8.6-0.1,12.7-1.1v43.5h6.7v2.6H646.2z M658.2,97.6
			c2.7,0,5.8,2.5,5.8,5.4c0,3.5-2.5,6-5.8,6c-3.3,0-5.4-2.7-5.4-6C652.7,100.1,655.3,97.6,658.2,97.6z"/>
	</g>
</g>
</svg>
