<?xml version="1.0" encoding="utf-8"?>
<!-- Generator: Adobe Illustrator 21.0.0, SVG Export Plug-In . SVG Version: 6.00 Build 0)  -->
<svg version="1.1" id="Layer_1" xmlns="http://www.w3.org/2000/svg" xmlns:xlink="http://www.w3.org/1999/xlink" viewBox="0 0 48.8 48.8" xml:space="preserve">
<path d="M27.9,24.4l13.5-13.5c1-1,1-2.6,0-3.5c-1-1-2.6-1-3.5,0L24.4,20.8L10.8,7.3c-1-1-2.6-1-3.5,0c-1,1-1,2.6,0,3.5l13.5,13.5
	L7.3,37.9c-1,1-1,2.6,0,3.5c0.5,0.5,1.1,0.7,1.8,0.7s1.3-0.2,1.8-0.7l13.5-13.5l13.5,13.5c0.5,0.5,1.1,0.7,1.8,0.7s1.3-0.2,1.8-0.7
	c1-1,1-2.6,0-3.5L27.9,24.4z"/>
</svg>
