<?xml version="1.0" encoding="utf-8"?>
<!-- Generator: Adobe Illustrator 21.0.0, SVG Export Plug-In . SVG Version: 6.00 Build 0)  -->
<svg version="1.1" id="Layer_1" xmlns="http://www.w3.org/2000/svg" xmlns:xlink="http://www.w3.org/1999/xlink" viewBox="0 0 48.8 48.8" xml:space="preserve">
<g>
	<g>
		<path d="M43.8,13.4H5c-1.4,0-2.5-1.1-2.5-2.5S3.7,8.4,5,8.4h38.7c1.4,0,2.5,1.1,2.5,2.5S45.1,13.4,43.8,13.4z"/>
	</g>
	<g>
		<path d="M43.8,26.8H5c-1.4,0-2.5-1.1-2.5-2.5s1.1-2.5,2.5-2.5h38.7c1.4,0,2.5,1.1,2.5,2.5S45.1,26.8,43.8,26.8z"/>
	</g>
	<g>
		<path d="M43.8,40.3H5c-1.4,0-2.5-1.1-2.5-2.5s1.1-2.5,2.5-2.5h38.7c1.4,0,2.5,1.1,2.5,2.5S45.1,40.3,43.8,40.3z"/>
	</g>
</g>
</svg>
