<?xml version="1.0" encoding="utf-8"?>
<!-- Generator: Adobe Illustrator 21.0.0, SVG Export Plug-In . SVG Version: 6.00 Build 0)  -->
<svg version="1.1" id="Layer_1" xmlns="http://www.w3.org/2000/svg" xmlns:xlink="http://www.w3.org/1999/xlink" viewBox="0 0 48.8 48.8" xml:space="preserve">
<path d="M43.3,40.7L34,31.4c4.8-6.2,4.4-15.2-1.3-20.8c-6.2-6.2-16.2-6.2-22.3,0c-6.2,6.2-6.2,16.2,0,22.3c3.1,3.1,7.1,4.6,11.2,4.6
	c3.4,0,6.8-1.1,9.7-3.3l9.3,9.3c0.4,0.4,0.9,0.6,1.4,0.6s1-0.2,1.4-0.6C44.1,42.8,44.1,41.5,43.3,40.7z M13.2,30.1
	c-4.6-4.6-4.6-12.1,0-16.7c2.3-2.3,5.3-3.5,8.3-3.5c3,0,6,1.2,8.3,3.5c4.6,4.6,4.6,12.1,0,16.7C25.2,34.7,17.8,34.7,13.2,30.1z"/>
</svg>
