<?xml version="1.0" encoding="utf-8"?>
<!-- Generator: Adobe Illustrator 21.0.0, SVG Export Plug-In . SVG Version: 6.00 Build 0)  -->
<svg version="1.1" id="layer1" xmlns="http://www.w3.org/2000/svg" xmlns:xlink="http://www.w3.org/1999/xlink" viewBox="0 0 1920 1080" xml:space="preserve">
<g id="tiles">
	<path d="M1882.2,45.6c-1.4-1.4-3.4-2.2-5.3-2.2s-3.8,0.7-5.3,2.2l0,0l-15.7,15.7c-2.9,2.9-2.9,7.6,0,10.5s7.6,2.9,10.5,0l15.8-15.8
		C1885.1,53.2,1885.1,48.5,1882.2,45.6z M1874.3,48.2L1874.3,48.2L1874.3,48.2L1874.3,48.2z"/>
	<path d="M1882.2,142.2c-1.4-1.4-3.4-2.2-5.3-2.2s-3.8,0.7-5.3,2.2l0,0l-15.7,15.7c-2.9,2.9-2.9,7.6,0,10.5s7.6,2.9,10.5,0
		l15.8-15.8C1885.1,149.9,1885.1,145.1,1882.2,142.2z M1874.3,144.9L1874.3,144.9L1874.3,144.9L1874.3,144.9z"/>
	<path d="M1882.2,238.8c-1.4-1.4-3.4-2.2-5.3-2.2s-3.8,0.7-5.3,2.2l0,0l-15.7,15.7c-2.9,2.9-2.9,7.6,0,10.5s7.6,2.9,10.5,0
		l15.8-15.8C1885.1,246.5,1885.1,241.7,1882.2,238.8z M1874.3,241.5L1874.3,241.5L1874.3,241.5L1874.3,241.5z"/>
	<path d="M1882.2,335.5c-1.4-1.4-3.4-2.2-5.3-2.2s-3.8,0.7-5.3,2.2l0,0l-15.7,15.7c-2.9,2.9-2.9,7.6,0,10.5s7.6,2.9,10.5,0
		l15.8-15.8C1885.1,343.1,1885.1,338.4,1882.2,335.5z M1874.3,338.1L1874.3,338.1L1874.3,338.1L1874.3,338.1z"/>
	<path d="M1882.2,432.1c-1.4-1.4-3.4-2.2-5.3-2.2s-3.8,0.7-5.3,2.2l0,0l-15.7,15.7c-2.9,2.9-2.9,7.6,0,10.5s7.6,2.9,10.5,0
		l15.8-15.8C1885.1,439.6,1885.1,435,1882.2,432.1z M1874.3,434.6L1874.3,434.6L1874.3,434.6L1874.3,434.6z"/>
	<path d="M1882.2,528.6c-1.4-1.4-3.4-2.2-5.3-2.2s-3.8,0.7-5.3,2.2l0,0l-15.7,15.7c-2.9,2.9-2.9,7.6,0,10.5s7.6,2.9,10.5,0
		l15.8-15.8C1885.1,536.2,1885.1,531.5,1882.2,528.6z M1874.3,531.2L1874.3,531.2L1874.3,531.2L1874.3,531.2z"/>
	<path d="M1882.2,625.2c-1.4-1.4-3.4-2.2-5.3-2.2s-3.8,0.7-5.3,2.2l0,0l-15.7,15.7c-2.9,2.9-2.9,7.6,0,10.5s7.6,2.9,10.5,0
		l15.8-15.8C1885.1,632.9,1885.1,628.1,1882.2,625.2z M1874.3,627.9L1874.3,627.9L1874.3,627.9L1874.3,627.9z"/>
	<path d="M1882.2,721.8c-1.4-1.4-3.4-2.2-5.3-2.2s-3.8,0.7-5.3,2.2l0,0l-15.7,15.7c-2.9,2.9-2.9,7.6,0,10.5s7.6,2.9,10.5,0
		l15.8-15.8C1885.1,729.5,1885.1,724.7,1882.2,721.8z M1874.3,724.5L1874.3,724.5L1874.3,724.5L1874.3,724.5z"/>
	<path d="M1882.2,818.5c-1.4-1.4-3.4-2.2-5.3-2.2s-3.8,0.7-5.3,2.2l0,0l-15.7,15.7c-2.9,2.9-2.9,7.6,0,10.5s7.6,2.9,10.5,0
		l15.8-15.8C1885.1,826.1,1885.1,821.4,1882.2,818.5z M1874.3,821.1L1874.3,821.1L1874.3,821.1L1874.3,821.1z"/>
	<path d="M1882.2,915.1c-1.4-1.4-3.4-2.2-5.3-2.2s-3.8,0.7-5.3,2.2l0,0l-15.7,15.7c-2.9,2.9-2.9,7.6,0,10.5s7.6,2.9,10.5,0
		l15.8-15.8C1885.1,922.7,1885.1,918,1882.2,915.1z M1874.3,917.7L1874.3,917.7L1874.3,917.7L1874.3,917.7z"/>
	<path d="M1882.2,1011.6c-1.4-1.4-3.4-2.2-5.3-2.2s-3.8,0.7-5.3,2.2l0,0l-15.7,15.7c-2.9,2.9-2.9,7.6,0,10.5s7.6,2.9,10.5,0
		l15.8-15.8C1885.1,1019.3,1885.1,1014.5,1882.2,1011.6z M1874.3,1014.3L1874.3,1014.3L1874.3,1014.3L1874.3,1014.3z"/>
	<path d="M1759.3,45.6c-1.4,1.4-2.2,3.4-2.2,5.3s0.7,3.8,2.2,5.3l0,0l15.7,15.7c2.9,2.9,7.6,2.9,10.5,0s2.9-7.6,0-10.5l-15.8-15.8
		C1766.9,42.7,1762.2,42.7,1759.3,45.6z M1761.9,53.5L1761.9,53.5L1761.9,53.5L1761.9,53.5z"/>
	<path d="M1759.3,142.2c-1.4,1.4-2.2,3.4-2.2,5.3s0.7,3.8,2.2,5.3l0,0l15.7,15.7c2.9,2.9,7.6,2.9,10.5,0s2.9-7.6,0-10.5l-15.8-15.8
		C1766.9,139.3,1762.2,139.3,1759.3,142.2z M1761.9,150.1L1761.9,150.1L1761.9,150.1L1761.9,150.1z"/>
	<path d="M1759.3,238.8c-1.4,1.4-2.2,3.4-2.2,5.3s0.7,3.8,2.2,5.3l0,0l15.7,15.7c2.9,2.9,7.6,2.9,10.5,0s2.9-7.6,0-10.5l-15.8-15.8
		C1766.9,235.9,1762.2,235.9,1759.3,238.8z M1761.9,246.7L1761.9,246.7L1761.9,246.7L1761.9,246.7z"/>
	<path d="M1759.3,335.4c-1.4,1.4-2.2,3.4-2.2,5.3s0.7,3.8,2.2,5.3l0,0l15.7,15.7c2.9,2.9,7.6,2.9,10.5,0s2.9-7.6,0-10.5l-15.8-15.8
		C1766.9,332.5,1762.2,332.5,1759.3,335.4z M1761.9,343.3L1761.9,343.3L1761.9,343.3L1761.9,343.3z"/>
	<path d="M1759.3,432c-1.4,1.4-2.2,3.4-2.2,5.3s0.7,3.8,2.2,5.3l0,0l15.7,15.7c2.9,2.9,7.6,2.9,10.5,0s2.9-7.6,0-10.5l-15.8-15.8
		C1766.9,429.1,1762.2,429.1,1759.3,432z M1761.9,439.9L1761.9,439.9L1761.9,439.9L1761.9,439.9z"/>
	<path d="M1759.3,528.6c-1.4,1.4-2.2,3.4-2.2,5.3s0.7,3.8,2.2,5.3l0,0l15.7,15.7c2.9,2.9,7.6,2.9,10.5,0s2.9-7.6,0-10.5l-15.8-15.8
		C1766.9,525.7,1762.2,525.7,1759.3,528.6z M1761.9,536.5L1761.9,536.5L1761.9,536.5L1761.9,536.5z"/>
	<path d="M1759.3,625.2c-1.4,1.4-2.2,3.4-2.2,5.3s0.7,3.8,2.2,5.3l0,0l15.7,15.7c2.9,2.9,7.6,2.9,10.5,0s2.9-7.6,0-10.5l-15.8-15.8
		C1766.9,622.3,1762.2,622.3,1759.3,625.2z M1761.9,633.1L1761.9,633.1L1761.9,633.1L1761.9,633.1z"/>
	<path d="M1759.3,721.8c-1.4,1.4-2.2,3.4-2.2,5.3s0.7,3.8,2.2,5.3l0,0l15.7,15.7c2.9,2.9,7.6,2.9,10.5,0s2.9-7.6,0-10.5l-15.8-15.8
		C1766.9,718.9,1762.2,718.9,1759.3,721.8z M1761.9,729.7L1761.9,729.7L1761.9,729.7L1761.9,729.7z"/>
	<path d="M1759.3,818.4c-1.4,1.4-2.2,3.4-2.2,5.3s0.7,3.8,2.2,5.3l0,0l15.7,15.7c2.9,2.9,7.6,2.9,10.5,0s2.9-7.6,0-10.5l-15.8-15.8
		C1766.9,815.5,1762.2,815.5,1759.3,818.4z M1761.9,826.3L1761.9,826.3L1761.9,826.3L1761.9,826.3z"/>
	<path d="M1759.3,915c-1.4,1.4-2.2,3.4-2.2,5.3s0.7,3.8,2.2,5.3l0,0l15.7,15.7c2.9,2.9,7.6,2.9,10.5,0s2.9-7.6,0-10.5l-15.8-15.8
		C1766.9,912.1,1762.2,912.1,1759.3,915z M1761.9,922.9L1761.9,922.9L1761.9,922.9L1761.9,922.9z"/>
	<path d="M1759.3,1011.6c-1.4,1.4-2.2,3.4-2.2,5.3c0,1.9,0.7,3.8,2.2,5.3l0,0l15.7,15.7c2.9,2.9,7.6,2.9,10.5,0s2.9-7.6,0-10.5
		l-15.8-15.8C1766.9,1008.7,1762.2,1008.7,1759.3,1011.6z M1761.9,1019.5L1761.9,1019.5L1761.9,1019.5L1761.9,1019.5z"/>
	<path d="M1688.8,45.6c-1.4-1.4-3.4-2.2-5.3-2.2s-3.8,0.7-5.3,2.2l0,0l-15.7,15.7c-2.9,2.9-2.9,7.6,0,10.5s7.6,2.9,10.5,0l15.8-15.8
		C1691.7,53.2,1691.7,48.5,1688.8,45.6z M1680.9,48.2L1680.9,48.2L1680.9,48.2L1680.9,48.2z"/>
	<path d="M1688.8,142.2c-1.4-1.4-3.4-2.2-5.3-2.2s-3.8,0.7-5.3,2.2l0,0l-15.7,15.7c-2.9,2.9-2.9,7.6,0,10.5s7.6,2.9,10.5,0
		l15.8-15.8C1691.7,149.9,1691.7,145.1,1688.8,142.2z M1680.9,144.9L1680.9,144.9L1680.9,144.9L1680.9,144.9z"/>
	<path d="M1688.8,238.8c-1.4-1.4-3.4-2.2-5.3-2.2s-3.8,0.7-5.3,2.2l0,0l-15.7,15.7c-2.9,2.9-2.9,7.6,0,10.5s7.6,2.9,10.5,0
		l15.8-15.8C1691.7,246.5,1691.7,241.7,1688.8,238.8z M1680.9,241.5L1680.9,241.5L1680.9,241.5L1680.9,241.5z"/>
	<path d="M1688.8,335.5c-1.4-1.4-3.4-2.2-5.3-2.2s-3.8,0.7-5.3,2.2l0,0l-15.7,15.7c-2.9,2.9-2.9,7.6,0,10.5s7.6,2.9,10.5,0
		l15.8-15.8C1691.7,343.1,1691.7,338.4,1688.8,335.5z M1680.9,338.1L1680.9,338.1L1680.9,338.1L1680.9,338.1z"/>
	<path d="M1688.8,432.1c-1.4-1.4-3.4-2.2-5.3-2.2s-3.8,0.7-5.3,2.2l0,0l-15.7,15.7c-2.9,2.9-2.9,7.6,0,10.5s7.6,2.9,10.5,0
		l15.8-15.8C1691.7,439.6,1691.7,435,1688.8,432.1z M1680.9,434.6L1680.9,434.6L1680.9,434.6L1680.9,434.6z"/>
	<path d="M1688.8,528.6c-1.4-1.4-3.4-2.2-5.3-2.2s-3.8,0.7-5.3,2.2l0,0l-15.7,15.7c-2.9,2.9-2.9,7.6,0,10.5s7.6,2.9,10.5,0
		l15.8-15.8C1691.7,536.2,1691.7,531.5,1688.8,528.6z M1680.9,531.2L1680.9,531.2L1680.9,531.2L1680.9,531.2z"/>
	<path d="M1688.8,625.2c-1.4-1.4-3.4-2.2-5.3-2.2s-3.8,0.7-5.3,2.2l0,0l-15.7,15.7c-2.9,2.9-2.9,7.6,0,10.5s7.6,2.9,10.5,0
		l15.8-15.8C1691.7,632.9,1691.7,628.1,1688.8,625.2z M1680.9,627.9L1680.9,627.9L1680.9,627.9L1680.9,627.9z"/>
	<path d="M1688.8,721.8c-1.4-1.4-3.4-2.2-5.3-2.2s-3.8,0.7-5.3,2.2l0,0l-15.7,15.7c-2.9,2.9-2.9,7.6,0,10.5s7.6,2.9,10.5,0
		l15.8-15.8C1691.7,729.5,1691.7,724.7,1688.8,721.8z M1680.9,724.5L1680.9,724.5L1680.9,724.5L1680.9,724.5z"/>
	<path d="M1688.8,818.5c-1.4-1.4-3.4-2.2-5.3-2.2s-3.8,0.7-5.3,2.2l0,0l-15.7,15.7c-2.9,2.9-2.9,7.6,0,10.5s7.6,2.9,10.5,0
		l15.8-15.8C1691.7,826.1,1691.7,821.4,1688.8,818.5z M1680.9,821.1L1680.9,821.1L1680.9,821.1L1680.9,821.1z"/>
	<path d="M1688.8,915.1c-1.4-1.4-3.4-2.2-5.3-2.2s-3.8,0.7-5.3,2.2l0,0l-15.7,15.7c-2.9,2.9-2.9,7.6,0,10.5s7.6,2.9,10.5,0
		l15.8-15.8C1691.7,922.7,1691.7,918,1688.8,915.1z M1680.9,917.7L1680.9,917.7L1680.9,917.7L1680.9,917.7z"/>
	<path d="M1688.8,1011.6c-1.4-1.4-3.4-2.2-5.3-2.2s-3.8,0.7-5.3,2.2l0,0l-15.7,15.7c-2.9,2.9-2.9,7.6,0,10.5s7.6,2.9,10.5,0
		l15.8-15.8C1691.7,1019.3,1691.7,1014.5,1688.8,1011.6z M1680.9,1014.3L1680.9,1014.3L1680.9,1014.3L1680.9,1014.3z"/>
	<path d="M1565.9,45.6c-1.4,1.4-2.2,3.4-2.2,5.3s0.7,3.8,2.2,5.3l0,0l15.7,15.7c2.9,2.9,7.6,2.9,10.5,0s2.9-7.6,0-10.5l-15.8-15.8
		C1573.5,42.7,1568.8,42.7,1565.9,45.6z M1568.5,53.5L1568.5,53.5L1568.5,53.5L1568.5,53.5z"/>
	<path d="M1565.9,142.2c-1.4,1.4-2.2,3.4-2.2,5.3s0.7,3.8,2.2,5.3l0,0l15.7,15.7c2.9,2.9,7.6,2.9,10.5,0s2.9-7.6,0-10.5l-15.8-15.8
		C1573.5,139.3,1568.8,139.3,1565.9,142.2z M1568.5,150.1L1568.5,150.1L1568.5,150.1L1568.5,150.1z"/>
	<path d="M1565.9,238.8c-1.4,1.4-2.2,3.4-2.2,5.3s0.7,3.8,2.2,5.3l0,0l15.7,15.7c2.9,2.9,7.6,2.9,10.5,0s2.9-7.6,0-10.5l-15.8-15.8
		C1573.5,235.9,1568.8,235.9,1565.9,238.8z M1568.5,246.7L1568.5,246.7L1568.5,246.7L1568.5,246.7z"/>
	<path d="M1565.9,335.4c-1.4,1.4-2.2,3.4-2.2,5.3s0.7,3.8,2.2,5.3l0,0l15.7,15.7c2.9,2.9,7.6,2.9,10.5,0s2.9-7.6,0-10.5l-15.8-15.8
		C1573.5,332.5,1568.8,332.5,1565.9,335.4z M1568.5,343.3L1568.5,343.3L1568.5,343.3L1568.5,343.3z"/>
	<path d="M1565.9,432c-1.4,1.4-2.2,3.4-2.2,5.3s0.7,3.8,2.2,5.3l0,0l15.7,15.7c2.9,2.9,7.6,2.9,10.5,0s2.9-7.6,0-10.5l-15.8-15.8
		C1573.5,429.1,1568.8,429.1,1565.9,432z M1568.5,439.9L1568.5,439.9L1568.5,439.9L1568.5,439.9z"/>
	<path d="M1565.9,528.6c-1.4,1.4-2.2,3.4-2.2,5.3s0.7,3.8,2.2,5.3l0,0l15.7,15.7c2.9,2.9,7.6,2.9,10.5,0s2.9-7.6,0-10.5l-15.8-15.8
		C1573.5,525.7,1568.8,525.7,1565.9,528.6z M1568.5,536.5L1568.5,536.5L1568.5,536.5L1568.5,536.5z"/>
	<path d="M1565.9,625.2c-1.4,1.4-2.2,3.4-2.2,5.3s0.7,3.8,2.2,5.3l0,0l15.7,15.7c2.9,2.9,7.6,2.9,10.5,0s2.9-7.6,0-10.5l-15.8-15.8
		C1573.5,622.3,1568.8,622.3,1565.9,625.2z M1568.5,633.1L1568.5,633.1L1568.5,633.1L1568.5,633.1z"/>
	<path d="M1565.9,721.8c-1.4,1.4-2.2,3.4-2.2,5.3s0.7,3.8,2.2,5.3l0,0l15.7,15.7c2.9,2.9,7.6,2.9,10.5,0s2.9-7.6,0-10.5l-15.8-15.8
		C1573.5,718.9,1568.8,718.9,1565.9,721.8z M1568.5,729.7L1568.5,729.7L1568.5,729.7L1568.5,729.7z"/>
	<path d="M1565.9,818.4c-1.4,1.4-2.2,3.4-2.2,5.3s0.7,3.8,2.2,5.3l0,0l15.7,15.7c2.9,2.9,7.6,2.9,10.5,0s2.9-7.6,0-10.5l-15.8-15.8
		C1573.5,815.5,1568.8,815.5,1565.9,818.4z M1568.5,826.3L1568.5,826.3L1568.5,826.3L1568.5,826.3z"/>
	<path d="M1565.9,915c-1.4,1.4-2.2,3.4-2.2,5.3s0.7,3.8,2.2,5.3l0,0l15.7,15.7c2.9,2.9,7.6,2.9,10.5,0s2.9-7.6,0-10.5l-15.8-15.8
		C1573.5,912.1,1568.8,912.1,1565.9,915z M1568.5,922.9L1568.5,922.9L1568.5,922.9L1568.5,922.9z"/>
	<path d="M1565.9,1011.6c-1.4,1.4-2.2,3.4-2.2,5.3c0,1.9,0.7,3.8,2.2,5.3l0,0l15.7,15.7c2.9,2.9,7.6,2.9,10.5,0s2.9-7.6,0-10.5
		l-15.8-15.8C1573.5,1008.7,1568.8,1008.7,1565.9,1011.6z M1568.5,1019.5L1568.5,1019.5L1568.5,1019.5L1568.5,1019.5z"/>
	<path d="M1495.4,45.6c-1.4-1.4-3.4-2.2-5.3-2.2s-3.8,0.7-5.3,2.2l0,0l-15.7,15.7c-2.9,2.9-2.9,7.6,0,10.5s7.6,2.9,10.5,0l15.8-15.8
		C1498.3,53.2,1498.3,48.5,1495.4,45.6z M1487.5,48.2L1487.5,48.2L1487.5,48.2L1487.5,48.2z"/>
	<path d="M1495.4,142.2c-1.4-1.4-3.4-2.2-5.3-2.2s-3.8,0.7-5.3,2.2l0,0l-15.7,15.7c-2.9,2.9-2.9,7.6,0,10.5s7.6,2.9,10.5,0
		l15.8-15.8C1498.3,149.9,1498.3,145.1,1495.4,142.2z M1487.5,144.9L1487.5,144.9L1487.5,144.9L1487.5,144.9z"/>
	<path d="M1495.4,238.8c-1.4-1.4-3.4-2.2-5.3-2.2s-3.8,0.7-5.3,2.2l0,0l-15.7,15.7c-2.9,2.9-2.9,7.6,0,10.5s7.6,2.9,10.5,0
		l15.8-15.8C1498.3,246.5,1498.3,241.7,1495.4,238.8z M1487.5,241.5L1487.5,241.5L1487.5,241.5L1487.5,241.5z"/>
	<path d="M1495.4,335.5c-1.4-1.4-3.4-2.2-5.3-2.2s-3.8,0.7-5.3,2.2l0,0l-15.7,15.7c-2.9,2.9-2.9,7.6,0,10.5s7.6,2.9,10.5,0
		l15.8-15.8C1498.3,343.1,1498.3,338.4,1495.4,335.5z M1487.5,338.1L1487.5,338.1L1487.5,338.1L1487.5,338.1z"/>
	<path d="M1495.4,432.1c-1.4-1.4-3.4-2.2-5.3-2.2s-3.8,0.7-5.3,2.2l0,0l-15.7,15.7c-2.9,2.9-2.9,7.6,0,10.5s7.6,2.9,10.5,0
		l15.8-15.8C1498.3,439.6,1498.3,435,1495.4,432.1z M1487.5,434.6L1487.5,434.6L1487.5,434.6L1487.5,434.6z"/>
	<path d="M1495.4,528.6c-1.4-1.4-3.4-2.2-5.3-2.2s-3.8,0.7-5.3,2.2l0,0l-15.7,15.7c-2.9,2.9-2.9,7.6,0,10.5s7.6,2.9,10.5,0
		l15.8-15.8C1498.3,536.2,1498.3,531.5,1495.4,528.6z M1487.5,531.2L1487.5,531.2L1487.5,531.2L1487.5,531.2z"/>
	<path d="M1495.4,625.2c-1.4-1.4-3.4-2.2-5.3-2.2s-3.8,0.7-5.3,2.2l0,0l-15.7,15.7c-2.9,2.9-2.9,7.6,0,10.5s7.6,2.9,10.5,0
		l15.8-15.8C1498.3,632.9,1498.3,628.1,1495.4,625.2z M1487.5,627.9L1487.5,627.9L1487.5,627.9L1487.5,627.9z"/>
	<path d="M1495.4,721.8c-1.4-1.4-3.4-2.2-5.3-2.2s-3.8,0.7-5.3,2.2l0,0l-15.7,15.7c-2.9,2.9-2.9,7.6,0,10.5s7.6,2.9,10.5,0
		l15.8-15.8C1498.3,729.5,1498.3,724.7,1495.4,721.8z M1487.5,724.5L1487.5,724.5L1487.5,724.5L1487.5,724.5z"/>
	<path d="M1495.4,818.5c-1.4-1.4-3.4-2.2-5.3-2.2s-3.8,0.7-5.3,2.2l0,0l-15.7,15.7c-2.9,2.9-2.9,7.6,0,10.5s7.6,2.9,10.5,0
		l15.8-15.8C1498.3,826.1,1498.3,821.4,1495.4,818.5z M1487.5,821.1L1487.5,821.1L1487.5,821.1L1487.5,821.1z"/>
	<path d="M1495.4,915.1c-1.4-1.4-3.4-2.2-5.3-2.2s-3.8,0.7-5.3,2.2l0,0l-15.7,15.7c-2.9,2.9-2.9,7.6,0,10.5s7.6,2.9,10.5,0
		l15.8-15.8C1498.3,922.7,1498.3,918,1495.4,915.1z M1487.5,917.7L1487.5,917.7L1487.5,917.7L1487.5,917.7z"/>
	<path d="M1495.4,1011.6c-1.4-1.4-3.4-2.2-5.3-2.2s-3.8,0.7-5.3,2.2l0,0l-15.7,15.7c-2.9,2.9-2.9,7.6,0,10.5s7.6,2.9,10.5,0
		l15.8-15.8C1498.3,1019.3,1498.3,1014.5,1495.4,1011.6z M1487.5,1014.3L1487.5,1014.3L1487.5,1014.3L1487.5,1014.3z"/>
	<path d="M1372.5,45.6c-1.4,1.4-2.2,3.4-2.2,5.3s0.7,3.8,2.2,5.3l0,0l15.7,15.7c2.9,2.9,7.6,2.9,10.5,0s2.9-7.6,0-10.5l-15.8-15.8
		C1380.1,42.7,1375.4,42.7,1372.5,45.6z M1375.1,53.5L1375.1,53.5L1375.1,53.5L1375.1,53.5z"/>
	<path d="M1372.5,142.2c-1.4,1.4-2.2,3.4-2.2,5.3s0.7,3.8,2.2,5.3l0,0l15.7,15.7c2.9,2.9,7.6,2.9,10.5,0s2.9-7.6,0-10.5l-15.8-15.8
		C1380.1,139.3,1375.4,139.3,1372.5,142.2z M1375.1,150.1L1375.1,150.1L1375.1,150.1L1375.1,150.1z"/>
	<path d="M1372.5,238.8c-1.4,1.4-2.2,3.4-2.2,5.3s0.7,3.8,2.2,5.3l0,0l15.7,15.7c2.9,2.9,7.6,2.9,10.5,0s2.9-7.6,0-10.5l-15.8-15.8
		C1380.1,235.9,1375.4,235.9,1372.5,238.8z M1375.1,246.7L1375.1,246.7L1375.1,246.7L1375.1,246.7z"/>
	<path d="M1372.5,335.4c-1.4,1.4-2.2,3.4-2.2,5.3s0.7,3.8,2.2,5.3l0,0l15.7,15.7c2.9,2.9,7.6,2.9,10.5,0s2.9-7.6,0-10.5l-15.8-15.8
		C1380.1,332.5,1375.4,332.5,1372.5,335.4z M1375.1,343.3L1375.1,343.3L1375.1,343.3L1375.1,343.3z"/>
	<path d="M1372.5,432c-1.4,1.4-2.2,3.4-2.2,5.3s0.7,3.8,2.2,5.3l0,0l15.7,15.7c2.9,2.9,7.6,2.9,10.5,0s2.9-7.6,0-10.5l-15.8-15.8
		C1380.1,429.1,1375.4,429.1,1372.5,432z M1375.1,439.9L1375.1,439.9L1375.1,439.9L1375.1,439.9z"/>
	<path d="M1372.5,528.6c-1.4,1.4-2.2,3.4-2.2,5.3s0.7,3.8,2.2,5.3l0,0l15.7,15.7c2.9,2.9,7.6,2.9,10.5,0s2.9-7.6,0-10.5l-15.8-15.8
		C1380.1,525.7,1375.4,525.7,1372.5,528.6z M1375.1,536.5L1375.1,536.5L1375.1,536.5L1375.1,536.5z"/>
	<path d="M1372.5,625.2c-1.4,1.4-2.2,3.4-2.2,5.3s0.7,3.8,2.2,5.3l0,0l15.7,15.7c2.9,2.9,7.6,2.9,10.5,0s2.9-7.6,0-10.5l-15.8-15.8
		C1380.1,622.3,1375.4,622.3,1372.5,625.2z M1375.1,633.1L1375.1,633.1L1375.1,633.1L1375.1,633.1z"/>
	<path d="M1372.5,721.8c-1.4,1.4-2.2,3.4-2.2,5.3s0.7,3.8,2.2,5.3l0,0l15.7,15.7c2.9,2.9,7.6,2.9,10.5,0s2.9-7.6,0-10.5l-15.8-15.8
		C1380.1,718.9,1375.4,718.9,1372.5,721.8z M1375.1,729.7L1375.1,729.7L1375.1,729.7L1375.1,729.7z"/>
	<path d="M1372.5,818.4c-1.4,1.4-2.2,3.4-2.2,5.3s0.7,3.8,2.2,5.3l0,0l15.7,15.7c2.9,2.9,7.6,2.9,10.5,0s2.9-7.6,0-10.5l-15.8-15.8
		C1380.1,815.5,1375.4,815.5,1372.5,818.4z M1375.1,826.3L1375.1,826.3L1375.1,826.3L1375.1,826.3z"/>
	<path d="M1372.5,915c-1.4,1.4-2.2,3.4-2.2,5.3s0.7,3.8,2.2,5.3l0,0l15.7,15.7c2.9,2.9,7.6,2.9,10.5,0s2.9-7.6,0-10.5l-15.8-15.8
		C1380.1,912.1,1375.4,912.1,1372.5,915z M1375.1,922.9L1375.1,922.9L1375.1,922.9L1375.1,922.9z"/>
	<path d="M1372.5,1011.6c-1.4,1.4-2.2,3.4-2.2,5.3c0,1.9,0.7,3.8,2.2,5.3l0,0l15.7,15.7c2.9,2.9,7.6,2.9,10.5,0s2.9-7.6,0-10.5
		l-15.8-15.8C1380.1,1008.7,1375.4,1008.7,1372.5,1011.6z M1375.1,1019.5L1375.1,1019.5L1375.1,1019.5L1375.1,1019.5z"/>
	<path d="M1302,45.6c-1.4-1.4-3.4-2.2-5.3-2.2c-1.9,0-3.8,0.7-5.3,2.2l0,0l-15.7,15.7c-2.9,2.9-2.9,7.6,0,10.5
		c2.9,2.9,7.6,2.9,10.5,0L1302,56C1304.9,53.2,1304.9,48.5,1302,45.6z M1294.1,48.2L1294.1,48.2L1294.1,48.2L1294.1,48.2z"/>
	<path d="M1302,142.2c-1.4-1.4-3.4-2.2-5.3-2.2c-1.9,0-3.8,0.7-5.3,2.2l0,0l-15.7,15.7c-2.9,2.9-2.9,7.6,0,10.5
		c2.9,2.9,7.6,2.9,10.5,0l15.8-15.8C1304.9,149.9,1304.9,145.1,1302,142.2z M1294.1,144.9L1294.1,144.9L1294.1,144.9L1294.1,144.9z"
		/>
	<path d="M1302,238.8c-1.4-1.4-3.4-2.2-5.3-2.2c-1.9,0-3.8,0.7-5.3,2.2l0,0l-15.7,15.7c-2.9,2.9-2.9,7.6,0,10.5
		c2.9,2.9,7.6,2.9,10.5,0l15.8-15.8C1304.9,246.5,1304.9,241.7,1302,238.8z M1294.1,241.5L1294.1,241.5L1294.1,241.5L1294.1,241.5z"
		/>
	<path d="M1302,335.5c-1.4-1.4-3.4-2.2-5.3-2.2c-1.9,0-3.8,0.7-5.3,2.2l0,0l-15.7,15.7c-2.9,2.9-2.9,7.6,0,10.5
		c2.9,2.9,7.6,2.9,10.5,0l15.8-15.8C1304.9,343.1,1304.9,338.4,1302,335.5z M1294.1,338.1L1294.1,338.1L1294.1,338.1L1294.1,338.1z"
		/>
	<path d="M1302,432.1c-1.4-1.4-3.4-2.2-5.3-2.2c-1.9,0-3.8,0.7-5.3,2.2l0,0l-15.7,15.7c-2.9,2.9-2.9,7.6,0,10.5
		c2.9,2.9,7.6,2.9,10.5,0l15.8-15.8C1304.9,439.6,1304.9,435,1302,432.1z M1294.1,434.6L1294.1,434.6L1294.1,434.6L1294.1,434.6z"/>
	<path d="M1302,528.6c-1.4-1.4-3.4-2.2-5.3-2.2c-1.9,0-3.8,0.7-5.3,2.2l0,0l-15.7,15.7c-2.9,2.9-2.9,7.6,0,10.5
		c2.9,2.9,7.6,2.9,10.5,0L1302,539C1304.9,536.2,1304.9,531.5,1302,528.6z M1294.1,531.2L1294.1,531.2L1294.1,531.2L1294.1,531.2z"
		/>
	<path d="M1302,625.2c-1.4-1.4-3.4-2.2-5.3-2.2c-1.9,0-3.8,0.7-5.3,2.2l0,0l-15.7,15.7c-2.9,2.9-2.9,7.6,0,10.5
		c2.9,2.9,7.6,2.9,10.5,0l15.8-15.8C1304.9,632.9,1304.9,628.1,1302,625.2z M1294.1,627.9L1294.1,627.9L1294.1,627.9L1294.1,627.9z"
		/>
	<path d="M1302,721.8c-1.4-1.4-3.4-2.2-5.3-2.2c-1.9,0-3.8,0.7-5.3,2.2l0,0l-15.7,15.7c-2.9,2.9-2.9,7.6,0,10.5
		c2.9,2.9,7.6,2.9,10.5,0l15.8-15.8C1304.9,729.5,1304.9,724.7,1302,721.8z M1294.1,724.5L1294.1,724.5L1294.1,724.5L1294.1,724.5z"
		/>
	<path d="M1302,818.5c-1.4-1.4-3.4-2.2-5.3-2.2c-1.9,0-3.8,0.7-5.3,2.2l0,0l-15.7,15.7c-2.9,2.9-2.9,7.6,0,10.5
		c2.9,2.9,7.6,2.9,10.5,0l15.8-15.8C1304.9,826.1,1304.9,821.4,1302,818.5z M1294.1,821.1L1294.1,821.1L1294.1,821.1L1294.1,821.1z"
		/>
	<path d="M1302,915.1c-1.4-1.4-3.4-2.2-5.3-2.2c-1.9,0-3.8,0.7-5.3,2.2l0,0l-15.7,15.7c-2.9,2.9-2.9,7.6,0,10.5
		c2.9,2.9,7.6,2.9,10.5,0l15.8-15.8C1304.9,922.7,1304.9,918,1302,915.1z M1294.1,917.7L1294.1,917.7L1294.1,917.7L1294.1,917.7z"/>
	<path d="M1302,1011.6c-1.4-1.4-3.4-2.2-5.3-2.2c-1.9,0-3.8,0.7-5.3,2.2l0,0l-15.7,15.7c-2.9,2.9-2.9,7.6,0,10.5
		c2.9,2.9,7.6,2.9,10.5,0l15.8-15.8C1304.9,1019.3,1304.9,1014.5,1302,1011.6z M1294.1,1014.3L1294.1,1014.3L1294.1,1014.3
		L1294.1,1014.3z"/>
	<path d="M1179.1,45.6c-1.4,1.4-2.2,3.4-2.2,5.3s0.7,3.8,2.2,5.3l0,0l15.7,15.7c2.9,2.9,7.6,2.9,10.5,0c2.9-2.9,2.9-7.6,0-10.5
		l-15.8-15.8C1186.7,42.7,1182,42.7,1179.1,45.6z M1181.7,53.5L1181.7,53.5L1181.7,53.5L1181.7,53.5z"/>
	<path d="M1179.1,142.2c-1.4,1.4-2.2,3.4-2.2,5.3s0.7,3.8,2.2,5.3l0,0l15.7,15.7c2.9,2.9,7.6,2.9,10.5,0c2.9-2.9,2.9-7.6,0-10.5
		l-15.8-15.8C1186.7,139.3,1182,139.3,1179.1,142.2z M1181.7,150.1L1181.7,150.1L1181.7,150.1L1181.7,150.1z"/>
	<path d="M1179.1,238.8c-1.4,1.4-2.2,3.4-2.2,5.3s0.7,3.8,2.2,5.3l0,0l15.7,15.7c2.9,2.9,7.6,2.9,10.5,0c2.9-2.9,2.9-7.6,0-10.5
		l-15.8-15.8C1186.7,235.9,1182,235.9,1179.1,238.8z M1181.7,246.7L1181.7,246.7L1181.7,246.7L1181.7,246.7z"/>
	<path d="M1179.1,335.4c-1.4,1.4-2.2,3.4-2.2,5.3s0.7,3.8,2.2,5.3l0,0l15.7,15.7c2.9,2.9,7.6,2.9,10.5,0c2.9-2.9,2.9-7.6,0-10.5
		l-15.8-15.8C1186.7,332.5,1182,332.5,1179.1,335.4z M1181.7,343.3L1181.7,343.3L1181.7,343.3L1181.7,343.3z"/>
	<path d="M1179.1,432c-1.4,1.4-2.2,3.4-2.2,5.3s0.7,3.8,2.2,5.3l0,0l15.7,15.7c2.9,2.9,7.6,2.9,10.5,0c2.9-2.9,2.9-7.6,0-10.5
		l-15.8-15.8C1186.7,429.1,1182,429.1,1179.1,432z M1181.7,439.9L1181.7,439.9L1181.7,439.9L1181.7,439.9z"/>
	<path d="M1179.1,528.6c-1.4,1.4-2.2,3.4-2.2,5.3s0.7,3.8,2.2,5.3l0,0l15.7,15.7c2.9,2.9,7.6,2.9,10.5,0c2.9-2.9,2.9-7.6,0-10.5
		l-15.8-15.8C1186.7,525.7,1182,525.7,1179.1,528.6z M1181.7,536.5L1181.7,536.5L1181.7,536.5L1181.7,536.5z"/>
	<path d="M1179.1,625.2c-1.4,1.4-2.2,3.4-2.2,5.3s0.7,3.8,2.2,5.3l0,0l15.7,15.7c2.9,2.9,7.6,2.9,10.5,0c2.9-2.9,2.9-7.6,0-10.5
		l-15.8-15.8C1186.7,622.3,1182,622.3,1179.1,625.2z M1181.7,633.1L1181.7,633.1L1181.7,633.1L1181.7,633.1z"/>
	<path d="M1179.1,721.8c-1.4,1.4-2.2,3.4-2.2,5.3s0.7,3.8,2.2,5.3l0,0l15.7,15.7c2.9,2.9,7.6,2.9,10.5,0c2.9-2.9,2.9-7.6,0-10.5
		l-15.8-15.8C1186.7,718.9,1182,718.9,1179.1,721.8z M1181.7,729.7L1181.7,729.7L1181.7,729.7L1181.7,729.7z"/>
	<path d="M1179.1,818.4c-1.4,1.4-2.2,3.4-2.2,5.3s0.7,3.8,2.2,5.3l0,0l15.7,15.7c2.9,2.9,7.6,2.9,10.5,0c2.9-2.9,2.9-7.6,0-10.5
		l-15.8-15.8C1186.7,815.5,1182,815.5,1179.1,818.4z M1181.7,826.3L1181.7,826.3L1181.7,826.3L1181.7,826.3z"/>
	<path d="M1179.1,915c-1.4,1.4-2.2,3.4-2.2,5.3s0.7,3.8,2.2,5.3l0,0l15.7,15.7c2.9,2.9,7.6,2.9,10.5,0c2.9-2.9,2.9-7.6,0-10.5
		l-15.8-15.8C1186.7,912.1,1182,912.1,1179.1,915z M1181.7,922.9L1181.7,922.9L1181.7,922.9L1181.7,922.9z"/>
	<path d="M1179.1,1011.6c-1.4,1.4-2.2,3.4-2.2,5.3c0,1.9,0.7,3.8,2.2,5.3l0,0l15.7,15.7c2.9,2.9,7.6,2.9,10.5,0
		c2.9-2.9,2.9-7.6,0-10.5l-15.8-15.8C1186.7,1008.7,1182,1008.7,1179.1,1011.6z M1181.7,1019.5L1181.7,1019.5L1181.7,1019.5
		L1181.7,1019.5z"/>
	<path d="M1108.6,45.6c-1.4-1.4-3.4-2.2-5.3-2.2c-1.9,0-3.8,0.7-5.3,2.2l0,0l-15.7,15.7c-2.9,2.9-2.9,7.6,0,10.5
		c2.9,2.9,7.6,2.9,10.5,0l15.8-15.8C1111.5,53.2,1111.5,48.5,1108.6,45.6z M1100.7,48.2L1100.7,48.2L1100.7,48.2L1100.7,48.2z"/>
	<path d="M1108.6,142.2c-1.4-1.4-3.4-2.2-5.3-2.2c-1.9,0-3.8,0.7-5.3,2.2l0,0l-15.7,15.7c-2.9,2.9-2.9,7.6,0,10.5
		c2.9,2.9,7.6,2.9,10.5,0l15.8-15.8C1111.5,149.9,1111.5,145.1,1108.6,142.2z M1100.7,144.9L1100.7,144.9L1100.7,144.9L1100.7,144.9
		z"/>
	<path d="M1108.6,238.8c-1.4-1.4-3.4-2.2-5.3-2.2c-1.9,0-3.8,0.7-5.3,2.2l0,0l-15.7,15.7c-2.9,2.9-2.9,7.6,0,10.5
		c2.9,2.9,7.6,2.9,10.5,0l15.8-15.8C1111.5,246.5,1111.5,241.7,1108.6,238.8z M1100.7,241.5L1100.7,241.5L1100.7,241.5L1100.7,241.5
		z"/>
	<path d="M1108.6,335.5c-1.4-1.4-3.4-2.2-5.3-2.2c-1.9,0-3.8,0.7-5.3,2.2l0,0l-15.7,15.7c-2.9,2.9-2.9,7.6,0,10.5
		c2.9,2.9,7.6,2.9,10.5,0l15.8-15.8C1111.5,343.1,1111.5,338.4,1108.6,335.5z M1100.7,338.1L1100.7,338.1L1100.7,338.1L1100.7,338.1
		z"/>
	<path d="M1108.6,432.1c-1.4-1.4-3.4-2.2-5.3-2.2c-1.9,0-3.8,0.7-5.3,2.2l0,0l-15.7,15.7c-2.9,2.9-2.9,7.6,0,10.5
		c2.9,2.9,7.6,2.9,10.5,0l15.8-15.8C1111.5,439.6,1111.5,435,1108.6,432.1z M1100.7,434.6L1100.7,434.6L1100.7,434.6L1100.7,434.6z"
		/>
	<path d="M1108.6,528.6c-1.4-1.4-3.4-2.2-5.3-2.2c-1.9,0-3.8,0.7-5.3,2.2l0,0l-15.7,15.7c-2.9,2.9-2.9,7.6,0,10.5
		c2.9,2.9,7.6,2.9,10.5,0l15.8-15.8C1111.5,536.2,1111.5,531.5,1108.6,528.6z M1100.7,531.2L1100.7,531.2L1100.7,531.2L1100.7,531.2
		z"/>
	<path d="M1108.6,625.2c-1.4-1.4-3.4-2.2-5.3-2.2c-1.9,0-3.8,0.7-5.3,2.2l0,0l-15.7,15.7c-2.9,2.9-2.9,7.6,0,10.5
		c2.9,2.9,7.6,2.9,10.5,0l15.8-15.8C1111.5,632.9,1111.5,628.1,1108.6,625.2z M1100.7,627.9L1100.7,627.9L1100.7,627.9L1100.7,627.9
		z"/>
	<path d="M1108.6,721.8c-1.4-1.4-3.4-2.2-5.3-2.2c-1.9,0-3.8,0.7-5.3,2.2l0,0l-15.7,15.7c-2.9,2.9-2.9,7.6,0,10.5
		c2.9,2.9,7.6,2.9,10.5,0l15.8-15.8C1111.5,729.5,1111.5,724.7,1108.6,721.8z M1100.7,724.5L1100.7,724.5L1100.7,724.5L1100.7,724.5
		z"/>
	<path d="M1108.6,818.5c-1.4-1.4-3.4-2.2-5.3-2.2c-1.9,0-3.8,0.7-5.3,2.2l0,0l-15.7,15.7c-2.9,2.9-2.9,7.6,0,10.5
		c2.9,2.9,7.6,2.9,10.5,0l15.8-15.8C1111.5,826.1,1111.5,821.4,1108.6,818.5z M1100.7,821.1L1100.7,821.1L1100.7,821.1L1100.7,821.1
		z"/>
	<path d="M1108.6,915.1c-1.4-1.4-3.4-2.2-5.3-2.2c-1.9,0-3.8,0.7-5.3,2.2l0,0l-15.7,15.7c-2.9,2.9-2.9,7.6,0,10.5
		c2.9,2.9,7.6,2.9,10.5,0l15.8-15.8C1111.5,922.7,1111.5,918,1108.6,915.1z M1100.7,917.7L1100.7,917.7L1100.7,917.7L1100.7,917.7z"
		/>
	<path d="M1108.6,1011.6c-1.4-1.4-3.4-2.2-5.3-2.2c-1.9,0-3.8,0.7-5.3,2.2l0,0l-15.7,15.7c-2.9,2.9-2.9,7.6,0,10.5
		c2.9,2.9,7.6,2.9,10.5,0l15.8-15.8C1111.5,1019.3,1111.5,1014.5,1108.6,1011.6z M1100.7,1014.3L1100.7,1014.3L1100.7,1014.3
		L1100.7,1014.3z"/>
	<path d="M1011.9,1037.9c1.4-1.4,2.2-3.4,2.2-5.3c0-1.9-0.7-3.8-2.2-5.3l0,0l-15.7-15.7c-2.9-2.9-7.6-2.9-10.5,0
		c-2.9,2.9-2.9,7.6,0,10.5l15.8,15.8C1004.3,1040.8,1009,1040.8,1011.9,1037.9z M1009.3,1030L1009.3,1030L1009.3,1030L1009.3,1030z"
		/>
	<path d="M1011.9,941.3c1.4-1.4,2.2-3.4,2.2-5.3c0-1.9-0.7-3.8-2.2-5.3l0,0L996.2,915c-2.9-2.9-7.6-2.9-10.5,0
		c-2.9,2.9-2.9,7.6,0,10.5l15.8,15.8C1004.3,944.2,1009,944.2,1011.9,941.3z M1009.3,933.4L1009.3,933.4L1009.3,933.4L1009.3,933.4z
		"/>
	<path d="M1011.9,844.7c1.4-1.4,2.2-3.4,2.2-5.3s-0.7-3.8-2.2-5.3l0,0l-15.7-15.7c-2.9-2.9-7.6-2.9-10.5,0c-2.9,2.9-2.9,7.6,0,10.5
		l15.8,15.8C1004.3,847.6,1009,847.6,1011.9,844.7z M1009.3,836.8L1009.3,836.8L1009.3,836.8L1009.3,836.8z"/>
	<path d="M1011.9,748.1c1.4-1.4,2.2-3.4,2.2-5.3s-0.7-3.8-2.2-5.3l0,0l-15.7-15.7c-2.9-2.9-7.6-2.9-10.5,0c-2.9,2.9-2.9,7.6,0,10.5
		l15.8,15.8C1004.3,751,1009,751,1011.9,748.1z M1009.3,740.2L1009.3,740.2L1009.3,740.2L1009.3,740.2z"/>
	<path d="M1011.9,651.5c1.4-1.4,2.2-3.4,2.2-5.3s-0.7-3.8-2.2-5.3l0,0l-15.7-15.7c-2.9-2.9-7.6-2.9-10.5,0c-2.9,2.9-2.9,7.6,0,10.5
		l15.8,15.8C1004.3,654.4,1009,654.4,1011.9,651.5z M1009.3,643.6L1009.3,643.6L1009.3,643.6L1009.3,643.6z"/>
	<path d="M1011.9,554.9c1.4-1.4,2.2-3.4,2.2-5.3s-0.7-3.8-2.2-5.3l0,0l-15.7-15.7c-2.9-2.9-7.6-2.9-10.5,0c-2.9,2.9-2.9,7.6,0,10.5
		l15.8,15.8C1004.3,557.8,1009,557.8,1011.9,554.9z M1009.3,547L1009.3,547L1009.3,547L1009.3,547z"/>
	<path d="M1011.9,458.3c1.4-1.4,2.2-3.4,2.2-5.3s-0.7-3.8-2.2-5.3l0,0L996.2,432c-2.9-2.9-7.6-2.9-10.5,0c-2.9,2.9-2.9,7.6,0,10.5
		l15.8,15.8C1004.3,461.2,1009,461.2,1011.9,458.3z M1009.3,450.4L1009.3,450.4L1009.3,450.4L1009.3,450.4z"/>
	<path d="M1011.9,361.7c1.4-1.4,2.2-3.4,2.2-5.3s-0.7-3.8-2.2-5.3l0,0l-15.7-15.7c-2.9-2.9-7.6-2.9-10.5,0c-2.9,2.9-2.9,7.6,0,10.5
		l15.8,15.8C1004.3,364.6,1009,364.6,1011.9,361.7z M1009.3,353.8L1009.3,353.8L1009.3,353.8L1009.3,353.8z"/>
	<path d="M1011.9,265.1c1.4-1.4,2.2-3.4,2.2-5.3s-0.7-3.8-2.2-5.3l0,0l-15.7-15.7c-2.9-2.9-7.6-2.9-10.5,0c-2.9,2.9-2.9,7.6,0,10.5
		l15.8,15.8C1004.3,268,1009,268,1011.9,265.1z M1009.3,257.2L1009.3,257.2L1009.3,257.2L1009.3,257.2z"/>
	<path d="M1011.9,168.5c1.4-1.4,2.2-3.4,2.2-5.3s-0.7-3.8-2.2-5.3l0,0l-15.7-15.7c-2.9-2.9-7.6-2.9-10.5,0c-2.9,2.9-2.9,7.6,0,10.5
		l15.8,15.8C1004.3,171.4,1009,171.4,1011.9,168.5z M1009.3,160.6L1009.3,160.6L1009.3,160.6L1009.3,160.6z"/>
	<path d="M1011.9,71.9c1.4-1.4,2.2-3.4,2.2-5.3s-0.7-3.8-2.2-5.3l0,0l-15.7-15.7c-2.9-2.9-7.6-2.9-10.5,0c-2.9,2.9-2.9,7.6,0,10.5
		l15.8,15.8C1004.3,74.8,1009,74.8,1011.9,71.9z M1009.3,64L1009.3,64L1009.3,64L1009.3,64z"/>
	<path d="M915.2,45.6c-1.4-1.4-3.4-2.2-5.3-2.2c-1.9,0-3.8,0.7-5.3,2.2l0,0l-15.7,15.7c-2.9,2.9-2.9,7.6,0,10.5
		c2.9,2.9,7.6,2.9,10.5,0L915.2,56C918.1,53.2,918.1,48.5,915.2,45.6z M907.3,48.2L907.3,48.2L907.3,48.2L907.3,48.2z"/>
	<path d="M915.2,142.2c-1.4-1.4-3.4-2.2-5.3-2.2c-1.9,0-3.8,0.7-5.3,2.2l0,0l-15.7,15.7c-2.9,2.9-2.9,7.6,0,10.5
		c2.9,2.9,7.6,2.9,10.5,0l15.8-15.8C918.1,149.9,918.1,145.1,915.2,142.2z M907.3,144.9L907.3,144.9L907.3,144.9L907.3,144.9z"/>
	<path d="M915.2,238.8c-1.4-1.4-3.4-2.2-5.3-2.2c-1.9,0-3.8,0.7-5.3,2.2l0,0l-15.7,15.7c-2.9,2.9-2.9,7.6,0,10.5
		c2.9,2.9,7.6,2.9,10.5,0l15.8-15.8C918.1,246.5,918.1,241.7,915.2,238.8z M907.3,241.5L907.3,241.5L907.3,241.5L907.3,241.5z"/>
	<path d="M915.2,335.5c-1.4-1.4-3.4-2.2-5.3-2.2c-1.9,0-3.8,0.7-5.3,2.2l0,0l-15.7,15.7c-2.9,2.9-2.9,7.6,0,10.5
		c2.9,2.9,7.6,2.9,10.5,0l15.8-15.8C918.1,343.1,918.1,338.4,915.2,335.5z M907.3,338.1L907.3,338.1L907.3,338.1L907.3,338.1z"/>
	<path d="M915.2,432.1c-1.4-1.4-3.4-2.2-5.3-2.2c-1.9,0-3.8,0.7-5.3,2.2l0,0l-15.7,15.7c-2.9,2.9-2.9,7.6,0,10.5
		c2.9,2.9,7.6,2.9,10.5,0l15.8-15.8C918.1,439.6,918.1,435,915.2,432.1z M907.3,434.6L907.3,434.6L907.3,434.6L907.3,434.6z"/>
	<path d="M915.2,528.6c-1.4-1.4-3.4-2.2-5.3-2.2c-1.9,0-3.8,0.7-5.3,2.2l0,0l-15.7,15.7c-2.9,2.9-2.9,7.6,0,10.5
		c2.9,2.9,7.6,2.9,10.5,0l15.8-15.8C918.1,536.2,918.1,531.5,915.2,528.6z M907.3,531.2L907.3,531.2L907.3,531.2L907.3,531.2z"/>
	<path d="M915.2,625.2c-1.4-1.4-3.4-2.2-5.3-2.2c-1.9,0-3.8,0.7-5.3,2.2l0,0l-15.7,15.7c-2.9,2.9-2.9,7.6,0,10.5
		c2.9,2.9,7.6,2.9,10.5,0l15.8-15.8C918.1,632.9,918.1,628.1,915.2,625.2z M907.3,627.9L907.3,627.9L907.3,627.9L907.3,627.9z"/>
	<path d="M915.2,721.8c-1.4-1.4-3.4-2.2-5.3-2.2c-1.9,0-3.8,0.7-5.3,2.2l0,0l-15.7,15.7c-2.9,2.9-2.9,7.6,0,10.5
		c2.9,2.9,7.6,2.9,10.5,0l15.8-15.8C918.1,729.5,918.1,724.7,915.2,721.8z M907.3,724.5L907.3,724.5L907.3,724.5L907.3,724.5z"/>
	<path d="M915.2,818.5c-1.4-1.4-3.4-2.2-5.3-2.2c-1.9,0-3.8,0.7-5.3,2.2l0,0l-15.7,15.7c-2.9,2.9-2.9,7.6,0,10.5
		c2.9,2.9,7.6,2.9,10.5,0l15.8-15.8C918.1,826.1,918.1,821.4,915.2,818.5z M907.3,821.1L907.3,821.1L907.3,821.1L907.3,821.1z"/>
	<path d="M915.2,915.1c-1.4-1.4-3.4-2.2-5.3-2.2c-1.9,0-3.8,0.7-5.3,2.2l0,0l-15.7,15.7c-2.9,2.9-2.9,7.6,0,10.5
		c2.9,2.9,7.6,2.9,10.5,0l15.8-15.8C918.1,922.7,918.1,918,915.2,915.1z M907.3,917.7L907.3,917.7L907.3,917.7L907.3,917.7z"/>
	<path d="M915.2,1011.6c-1.4-1.4-3.4-2.2-5.3-2.2c-1.9,0-3.8,0.7-5.3,2.2l0,0l-15.7,15.7c-2.9,2.9-2.9,7.6,0,10.5
		c2.9,2.9,7.6,2.9,10.5,0l15.8-15.8C918.1,1019.3,918.1,1014.5,915.2,1011.6z M907.3,1014.3L907.3,1014.3L907.3,1014.3L907.3,1014.3
		z"/>
</g>
</svg>
