<?xml version="1.0" encoding="utf-8"?>
<!-- Generator: Adobe Illustrator 21.0.0, SVG Export Plug-In . SVG Version: 6.00 Build 0)  -->
<svg version="1.1" id="Layer_1" xmlns="http://www.w3.org/2000/svg" xmlns:xlink="http://www.w3.org/1999/xlink" viewBox="0 0 64 64" style="enable-background:new 0 0 64 64;" xml:space="preserve">
<style type="text/css">
	.st0{fill:#FFFFFF;}
</style>
<g>
	<path class="st0" d="M0.5,0.5v63h63v-63H0.5z M48.8,23.4c0,0.4,0,0.7,0,1.1c0,11.5-8.7,24.7-24.7,24.7c-4.9,0-9.5-1.4-13.3-3.9
		c0.7,0.1,1.4,0.1,2.1,0.1c4.1,0,7.8-1.4,10.8-3.7c-3.8-0.1-7-2.6-8.1-6c0.5,0.1,1.1,0.2,1.6,0.2c0.8,0,1.6-0.1,2.3-0.3
		c-4-0.8-7-4.3-7-8.5c0,0,0-0.1,0-0.1c1.2,0.7,2.5,1,3.9,1.1c-2.3-1.6-3.9-4.2-3.9-7.2c0-1.6,0.4-3.1,1.2-4.4
		c4.3,5.3,10.7,8.7,17.9,9.1c-0.6-2.5-0.1-5.4,2-8.2c4.7-3.8,9.9-2.8,12.8,0.3c2-0.4,3.8-1.1,5.5-2.1c-0.7,2-2,3.7-3.8,4.8
		c1.8-0.2,3.4-0.7,5-1.4C52,20.6,50.5,22.1,48.8,23.4z"/>
</g>
</svg>
