<?xml version="1.0" encoding="utf-8"?>
<!-- Generator: Adobe Illustrator 21.0.0, SVG Export Plug-In . SVG Version: 6.00 Build 0)  -->
<svg version="1.1" id="social_fb" xmlns="http://www.w3.org/2000/svg" xmlns:xlink="http://www.w3.org/1999/xlink" x="0px" y="0px"
	 width="350px" height="350px" viewBox="0 0 350 350" style="enable-background:new 0 0 350 350;" xml:space="preserve">
<g>
	<g>
		<path d="M236.2,315.6H115.3c-44,0-79.9-35.8-79.9-79.9V114.9c0-44,35.8-79.9,79.9-79.9h120.9c44,0,79.9,35.8,79.9,79.9v120.9
			C316,279.8,280.2,315.6,236.2,315.6z M115.3,59.1c-30.8,0-55.8,25-55.8,55.8v120.9c0,30.8,25,55.8,55.8,55.8h120.9
			c30.8,0,55.8-25,55.8-55.8V114.9c0-30.8-25-55.8-55.8-55.8H115.3z"/>
	</g>
	<g>
		<path d="M175.7,247.1c-39.6,0-71.8-32.2-71.8-71.8c0-39.6,32.2-71.8,71.8-71.8s71.8,32.2,71.8,71.8
			C247.6,214.9,215.3,247.1,175.7,247.1z M175.7,127.5c-26.4,0-47.8,21.4-47.8,47.8s21.4,47.8,47.8,47.8s47.8-21.4,47.8-47.8
			S202.1,127.5,175.7,127.5z"/>
	</g>
	<g>
		<circle cx="250.6" cy="99.3" r="17.3"/>
	</g>
</g>
</svg>
