<?xml version="1.0" encoding="utf-8"?>
<!-- Generator: Adobe Illustrator 20.0.0, SVG Export Plug-In . SVG Version: 6.00 Build 0)  -->
<svg version="1.1" id="social_tw" xmlns="http://www.w3.org/2000/svg" xmlns:xlink="http://www.w3.org/1999/xlink" x="0px" y="0px"
	 viewBox="0 0 350 350" enable-background="new 0 0 350 350" xml:space="preserve">
<path d="M306.3,109.6c0.2,3,0.2,5.9,0.2,8.7c0,89.5-68.2,192.9-192.9,192.9c-38.2,0-73.9-11.3-104-30.6c5.2,0.6,10.6,0.8,16.1,0.8
	c31.8,0,61-10.9,84.3-29c-29.7-0.6-54.8-20.1-63.4-47.1c4.1,0.8,8.4,1.3,12.7,1.3c6.3,0,12.2-0.8,17.8-2.2
	c-30.9-6.3-54.4-33.6-54.4-66.6c0-0.2,0-0.6,0-0.8c9.2,5.1,19.7,8.1,30.8,8.6c-18.2-12.2-30.1-32.8-30.1-56.4
	c0-12.4,3.3-24.1,9.2-34.1c33.5,41,83.4,68,139.7,70.9c-1.3-5.1-1.7-10-1.7-15.5c0-37.4,30.3-67.7,67.7-67.7
	c19.5,0,37.1,8.1,49.6,21.4c15.5-3.2,29.9-8.6,43.1-16.5c-5.1,15.9-15.9,29-29.9,37.4c13.8-1.7,26.8-5.2,38.9-10.6
	C331,88.1,319.4,100,306.3,109.6z"/>
</svg>
